<svg width="523" height="625" viewBox="0 0 523 625" fill="none" xmlns="http://www.w3.org/2000/svg">
<path d="M224 256C257.948 256 290.505 242.514 314.51 218.51C338.514 194.505 352 161.948 352 128C352 94.0523 338.514 61.495 314.51 37.4903C290.505 13.4857 257.948 0 224 0C190.052 0 157.495 13.4857 133.49 37.4903C109.486 61.495 96 94.0523 96 128C96 161.948 109.486 194.505 133.49 218.51C157.495 242.514 190.052 256 224 256ZM178.3 304C79.8 304 0 383.8 0 482.3C0 498.7 13.3 512 29.7 512H418.3C434.7 512 448 498.7 448 482.3C448 383.8 368.2 304 269.7 304H178.3Z" fill="white"/>
<path d="M406.521 274.97C418.746 265.693 436.187 264.981 449.198 273.261C462.59 281.783 468.572 298.438 461.251 313.313L461.25 313.312L415.316 407.131H474.672C488.449 407.131 501.896 414.612 507.504 427.559C513.362 441.081 508.492 455.825 497.323 464.425L497.296 464.446L315.01 604.009L314.988 604.025L314.967 604.041C302.741 613.318 285.3 614.031 272.289 605.751C258.904 597.233 252.921 580.589 260.227 565.719L306.166 471.943H246.815C233.068 471.943 219.577 464.364 213.983 451.452C208.217 438.141 212.846 423.647 223.646 414.994L224.179 414.575L224.192 414.565L406.478 275.003L406.521 274.97Z" fill="#FFD700" stroke="#050505" stroke-width="25"/>
</svg>
