<svg width="458" height="549" viewBox="0 0 458 549" fill="none" xmlns="http://www.w3.org/2000/svg">
<path d="M96 0C78.3 0 64 14.3 64 32V128H128V32C128 14.3 113.7 0 96 0ZM288 0C270.3 0 256 14.3 256 32V128H320V32C320 14.3 305.7 0 288 0ZM32 160C14.3 160 0 174.3 0 192C0 209.7 14.3 224 32 224V256C32 333.4 87 398 160 412.8V480C160 497.7 174.3 512 192 512C209.7 512 224 497.7 224 480V412.8C297 398 352 333.4 352 256V224C369.7 224 384 209.7 384 192C384 174.3 369.7 160 352 160H32Z" fill="white"/>
<path d="M320 278C393.457 278 453 337.543 453 411C453 484.457 393.457 544 320 544C246.543 544 187 484.457 187 411C187 337.543 246.543 278 320 278ZM266.456 424.16H313.317L310.776 430.919L291.409 482.444L367.743 402.272H319.396L321.092 395.972L337.084 336.595L266.456 424.16Z" fill="#FFD700" stroke="black" stroke-width="10"/>
</svg>
