<svg width="517" height="599" viewBox="0 0 517 599" fill="none" xmlns="http://www.w3.org/2000/svg">
<path d="M224 256C257.948 256 290.505 242.514 314.51 218.51C338.514 194.505 352 161.948 352 128C352 94.0523 338.514 61.495 314.51 37.4903C290.505 13.4857 257.948 0 224 0C190.052 0 157.495 13.4857 133.49 37.4903C109.486 61.495 96 94.0523 96 128C96 161.948 109.486 194.505 133.49 218.51C157.495 242.514 190.052 256 224 256ZM178.3 304C79.8 304 0 383.8 0 482.3C0 498.7 13.3 512 29.7 512H418.3C434.7 512 448 498.7 448 482.3C448 383.8 368.2 304 269.7 304H178.3Z" fill="#040404"/>
<g clip-path="url(#clip0_1_24)">
<path d="M517 351.781C517 362.082 508.621 371.582 494.5 379.25C477.449 388.463 452.02 394.987 422.84 396.933C420.672 395.903 418.504 394.93 416.219 394.072C393.133 384.629 362.43 379.25 329.5 379.25C324.637 379.25 319.891 379.364 315.145 379.593L314.5 379.25C300.379 371.582 292 362.082 292 351.781C292 326.487 342.391 306 404.5 306C466.609 306 517 326.487 517 351.781ZM311.16 398.192C317.137 397.791 323.289 397.562 329.5 397.562C365.945 397.562 398.289 404.601 418.855 415.532C433.387 423.257 442 432.871 442 443.344C442 445.633 441.59 447.865 440.77 450.039C438.074 457.593 430.809 464.518 420.262 470.355C420.203 470.412 420.086 470.412 420.027 470.469C419.852 470.584 419.676 470.641 419.5 470.755C398.992 481.857 366.297 489.068 329.5 489.068C294.578 489.068 263.348 482.601 242.664 472.415C241.551 471.9 240.496 471.328 239.441 470.755C225.379 463.144 217 453.645 217 443.344C217 423.429 248.289 406.433 292 400.195C298.152 399.337 304.539 398.65 311.16 398.192ZM460.75 443.344C460.75 430.811 454.539 420.51 446.629 412.785C463.211 410.267 478.387 406.261 491.277 401.053C500.828 397.162 509.734 392.355 517 386.461V406.719C517 417.763 507.332 427.95 491.336 435.847C482.781 440.082 472.352 443.687 460.633 446.434C460.691 445.404 460.75 444.431 460.75 443.401V443.344ZM442 498.281C442 508.582 433.621 518.082 419.5 525.75C418.445 526.322 417.391 526.837 416.277 527.41C395.652 537.596 364.422 544.062 329.5 544.062C292.703 544.062 260.008 536.852 239.5 525.75C225.379 518.082 217 508.582 217 498.281V478.023C224.324 483.917 233.172 488.724 242.723 492.616C265.867 502.058 296.57 507.438 329.5 507.438C362.43 507.438 393.133 502.058 416.277 492.616C420.848 490.785 425.242 488.667 429.402 486.378C432.977 484.432 436.316 482.258 439.48 479.969C440.359 479.339 441.18 478.653 442 478.023V479.969V483.231V498.281ZM460.75 498.281V479.969V465.147C471.883 462.744 482.137 459.711 491.277 455.991C500.828 452.099 509.734 447.292 517 441.398V461.656C517 467.665 514.07 473.674 508.27 479.339C498.719 488.667 481.902 496.336 460.633 501.314C460.691 500.341 460.75 499.311 460.75 498.281ZM329.5 562.375C362.43 562.375 393.133 556.996 416.277 547.553C425.828 543.662 434.734 538.855 442 532.961V553.219C442 578.513 391.609 599 329.5 599C267.391 599 217 578.513 217 553.219V532.961C224.324 538.855 233.172 543.662 242.723 547.553C265.867 556.996 296.57 562.375 329.5 562.375Z" fill="#FFD700"/>
</g>
<defs>
<clipPath id="clip0_1_24">
<rect width="300" height="293" fill="white" transform="translate(217 306)"/>
</clipPath>
</defs>
</svg>
