<svg width="572" height="601" viewBox="0 0 572 601" fill="none" xmlns="http://www.w3.org/2000/svg">
<path d="M224 256C257.948 256 290.505 242.514 314.51 218.51C338.514 194.505 352 161.948 352 128C352 94.0523 338.514 61.495 314.51 37.4903C290.505 13.4857 257.948 0 224 0C190.052 0 157.495 13.4857 133.49 37.4903C109.486 61.495 96 94.0523 96 128C96 161.948 109.486 194.505 133.49 218.51C157.495 242.514 190.052 256 224 256ZM178.3 304C79.8 304 0 383.8 0 482.3C0 498.7 13.3 512 29.7 512H418.3C434.7 512 448 498.7 448 482.3C448 383.8 368.2 304 269.7 304H178.3Z" fill="white"/>
<path fill-rule="evenodd" clip-rule="evenodd" d="M385.608 225.438C332.949 225.438 290.269 268.118 290.269 320.777C290.269 356.569 310.354 389.401 342.219 405.688L394.041 445.922L461.184 378.908C473.995 362.234 480.948 341.827 480.948 320.777C480.948 268.118 438.267 225.438 385.608 225.438Z" fill="#F2D865"/>
<path fill-rule="evenodd" clip-rule="evenodd" d="M385.608 225.438C382.003 225.438 378.398 225.631 374.922 226.081C422.559 231.424 459.575 271.788 459.575 320.777C459.575 341.828 452.622 362.234 439.812 378.908L382.067 436.523L394.106 445.858L461.249 378.843C474.059 362.17 481.012 341.763 481.012 320.713C481.012 268.054 438.331 225.373 385.673 225.373L385.608 225.438Z" fill="#F2D865"/>
<path fill-rule="evenodd" clip-rule="evenodd" d="M285.312 405.688C269.862 405.688 257.438 418.112 257.438 433.562C257.438 449.012 269.862 461.436 285.312 461.436V517.249C269.862 517.249 257.438 529.738 257.438 545.188C257.438 560.638 269.862 573.063 285.312 573.063H415.993C422.431 573.063 428.418 570.874 433.117 567.204L420.757 445.343L376.338 405.623H285.312V405.688Z" fill="#F2D865"/>
<path fill-rule="evenodd" clip-rule="evenodd" d="M359.987 517.249H285.376C269.926 517.249 257.438 504.825 257.438 489.375C257.438 473.925 269.862 461.501 285.376 461.501H349.365L359.987 517.314V517.249Z" fill="#E9C03D"/>
<path d="M486.051 558.096C533.287 534.833 552.721 477.681 529.457 430.444C506.193 383.208 449.042 363.774 401.805 387.038C354.568 410.302 335.135 467.453 358.398 514.69C381.662 561.926 438.814 581.36 486.051 558.096Z" fill="#F5E680"/>
<path d="M443.932 524.846C472.801 524.846 496.204 501.442 496.204 472.573C496.204 443.704 472.801 420.301 443.932 420.301C415.063 420.301 391.659 443.704 391.659 472.573C391.659 501.442 415.063 524.846 443.932 524.846Z" fill="#EBB680"/>
<path d="M437.792 324.388C439.796 295.588 418.074 270.617 389.274 268.614C360.474 266.61 335.503 288.332 333.499 317.132C331.496 345.932 353.218 370.903 382.018 372.906C410.817 374.91 435.789 353.188 437.792 324.388Z" fill="#EBB680"/>
<path fill-rule="evenodd" clip-rule="evenodd" d="M443.932 377.234C439.619 377.234 435.37 377.556 431.121 378.135C478.244 384.637 513.392 424.936 513.392 472.573C513.392 520.211 478.179 560.509 430.992 566.947C435.306 567.526 439.619 567.848 443.932 567.848C496.591 567.848 539.271 525.168 539.271 472.509C539.271 419.85 496.591 377.169 443.932 377.169V377.234Z" fill="#F2D865"/>
<path fill-rule="evenodd" clip-rule="evenodd" d="M443.932 420.301C440.971 420.301 438.138 420.558 435.306 421.009C460.09 425.129 479.016 446.63 479.016 472.573C479.016 498.516 460.09 520.018 435.306 524.138C438.074 524.588 440.971 524.846 443.932 524.846C472.836 524.846 496.204 501.413 496.204 472.573C496.204 443.733 472.836 420.301 443.932 420.301Z" fill="#E6A361"/>
<path fill-rule="evenodd" clip-rule="evenodd" d="M385.608 268.504C382.776 268.504 380.007 268.762 377.304 269.148C402.217 273.139 421.272 294.705 421.272 320.777C421.272 346.849 402.217 368.414 377.304 372.406C380.007 372.856 382.776 373.049 385.608 373.049C414.512 373.049 437.881 349.681 437.881 320.777C437.881 291.873 414.448 268.504 385.608 268.504Z" fill="#E6A361"/>
<path d="M471.291 374.981C481.527 358.758 487.385 339.961 487.385 320.777C487.385 264.642 441.743 219 385.608 219C329.473 219 283.831 264.642 283.831 320.777C283.831 351.741 297.801 380.131 321.104 399.25H285.312C266.386 399.25 251 414.636 251 433.562C251 445.085 256.729 455.256 265.484 461.436C256.729 467.681 251 477.852 251 489.311C251 500.769 256.729 511.005 265.484 517.185C256.794 523.429 251 533.536 251 545.059C251 563.986 266.386 579.371 285.312 579.371H415.993C422.881 579.371 429.383 577.118 434.984 573.32C437.945 573.578 440.842 574.221 443.867 574.221C500.003 574.221 545.644 528.579 545.644 472.444C545.644 425.837 514.036 386.89 471.227 374.916L471.291 374.981ZM296.706 320.777C296.706 271.787 336.554 231.875 385.608 231.875C434.662 231.875 474.51 271.723 474.51 320.777C474.51 339.188 468.523 357.213 457.837 372.212C453.266 371.569 448.696 370.796 443.932 370.796C416.701 370.796 391.981 381.74 373.699 399.25H343.957C314.796 383.8 296.706 353.93 296.706 320.777ZM263.875 433.562C263.875 421.717 273.531 412.125 285.312 412.125H362.562C353.292 424.614 346.726 439.098 343.957 455.063H285.312C273.467 455.063 263.875 445.407 263.875 433.626V433.562ZM285.312 510.812C273.467 510.812 263.875 501.156 263.875 489.375C263.875 477.594 273.531 467.938 285.312 467.938H342.67C342.606 469.547 342.219 471.028 342.219 472.573C342.219 486.092 344.987 499.031 349.816 510.812H285.312ZM285.312 566.625C273.467 566.625 263.875 556.969 263.875 545.188C263.875 533.408 273.531 523.751 285.312 523.751H356.446C367.648 542.871 384.643 558.192 405.371 566.689H285.312V566.625ZM443.932 561.475C394.943 561.475 355.03 521.627 355.03 472.573C355.03 423.519 394.621 383.671 443.932 383.671C493.243 383.671 532.834 423.519 532.834 472.573C532.834 521.627 492.986 561.475 443.932 561.475Z" fill="black"/>
<path d="M443.932 413.863C411.551 413.863 385.222 440.193 385.222 472.573C385.222 504.954 411.551 531.283 443.932 531.283C476.313 531.283 502.642 504.954 502.642 472.573C502.642 440.193 476.313 413.863 443.932 413.863ZM443.932 518.408C418.633 518.408 398.097 497.808 398.097 472.573C398.097 447.338 418.697 426.738 443.932 426.738C469.167 426.738 489.767 447.274 489.767 472.573C489.767 497.873 469.231 518.408 443.932 518.408Z" fill="black"/>
<path d="M385.608 379.487C417.989 379.487 444.318 353.158 444.318 320.777C444.318 288.396 417.989 262.067 385.608 262.067C353.227 262.067 326.898 288.396 326.898 320.777C326.898 353.158 353.227 379.487 385.608 379.487ZM385.608 274.942C410.907 274.942 431.443 295.542 431.443 320.777C431.443 346.012 410.843 366.612 385.608 366.612C360.373 366.612 339.773 346.076 339.773 320.777C339.773 295.478 360.309 274.942 385.608 274.942Z" fill="black"/>
<path d="M385.608 327.214C388.183 327.214 390.243 329.274 390.243 331.849C390.243 334.424 388.183 336.484 385.608 336.484C384.385 336.484 383.226 335.969 382.325 335.132C379.814 332.622 375.759 332.622 373.248 335.132C370.738 337.643 370.738 341.699 373.248 344.209C374.986 345.947 376.982 347.171 379.171 348.072V349.874C379.171 353.415 382.068 356.312 385.608 356.312C389.149 356.312 392.046 353.415 392.046 349.874V348.007C398.548 345.432 403.118 339.188 403.118 331.785C403.118 322.129 395.264 314.275 385.608 314.275C383.033 314.275 380.973 312.215 380.973 309.64C380.973 307.065 383.033 305.005 385.608 305.005C386.831 305.005 388.054 305.52 388.891 306.357C391.402 308.867 395.458 308.867 397.968 306.357C400.479 303.846 400.479 299.791 397.968 297.28C396.23 295.542 394.234 294.319 392.046 293.417V291.615C392.046 288.074 389.149 285.177 385.608 285.177C382.068 285.177 379.171 288.074 379.171 291.615V293.482C372.733 296.057 368.098 302.301 368.098 309.704C368.098 319.361 375.952 327.214 385.608 327.214Z" fill="black"/>
<path d="M443.932 466.136C441.357 466.136 439.297 464.076 439.297 461.501C439.297 458.926 441.357 456.866 443.932 456.866C445.155 456.866 446.314 457.316 447.215 458.217C449.726 460.728 453.781 460.728 456.292 458.217C458.802 455.707 458.802 451.651 456.292 449.141C454.554 447.402 452.558 446.115 450.369 445.278V443.476C450.369 439.935 447.473 437.038 443.932 437.038C440.391 437.038 437.494 439.935 437.494 443.476V445.342C431.057 447.917 426.422 454.162 426.422 461.565C426.422 471.221 434.276 479.075 443.932 479.075C446.507 479.075 448.567 481.135 448.567 483.71C448.567 486.285 446.507 488.345 443.932 488.345C442.709 488.345 441.55 487.83 440.649 486.993C438.138 484.482 434.082 484.482 431.572 486.993C429.061 489.504 429.061 493.559 431.572 496.07C433.31 497.808 435.306 499.031 437.494 499.932V501.735C437.494 505.276 440.391 508.172 443.932 508.172C447.473 508.172 450.369 505.276 450.369 501.735V499.868C456.807 497.293 461.442 491.049 461.442 483.646C461.442 473.989 453.588 466.136 443.932 466.136Z" fill="black"/>
<path d="M443.932 405.172C447.487 405.172 450.369 402.29 450.369 398.735C450.369 395.18 447.487 392.297 443.932 392.297C440.377 392.297 437.494 395.18 437.494 398.735C437.494 402.29 440.377 405.172 443.932 405.172Z" fill="black"/>
<path d="M443.932 552.784C447.487 552.784 450.369 549.902 450.369 546.347C450.369 542.792 447.487 539.909 443.932 539.909C440.377 539.909 437.494 542.792 437.494 546.347C437.494 549.902 440.377 552.784 443.932 552.784Z" fill="black"/>
<path d="M517.77 479.011C521.325 479.011 524.208 476.128 524.208 472.573C524.208 469.018 521.325 466.136 517.77 466.136C514.215 466.136 511.333 469.018 511.333 472.573C511.333 476.128 514.215 479.011 517.77 479.011Z" fill="black"/>
<path d="M370.158 479.011C373.714 479.011 376.596 476.128 376.596 472.573C376.596 469.018 373.714 466.136 370.158 466.136C366.603 466.136 363.721 469.018 363.721 472.573C363.721 476.128 366.603 479.011 370.158 479.011Z" fill="black"/>
<path d="M500.711 424.936C503.221 422.425 503.221 418.305 500.711 415.859C498.2 413.348 494.08 413.348 491.634 415.859C489.123 418.369 489.123 422.489 491.634 424.936C494.144 427.382 498.264 427.446 500.711 424.936Z" fill="black"/>
<path d="M387.217 520.211C384.707 522.721 384.707 526.841 387.217 529.287C389.728 531.798 393.848 531.798 396.294 529.287C398.805 526.777 398.805 522.657 396.294 520.211C393.784 517.7 389.664 517.7 387.217 520.211Z" fill="black"/>
<path d="M496.14 518.279C494.402 518.279 492.792 518.988 491.569 520.146C489.059 522.657 489.059 526.777 491.569 529.223C492.792 530.446 494.402 531.09 496.14 531.09C497.878 531.09 499.488 530.382 500.711 529.223C503.221 526.713 503.221 522.593 500.711 520.146C499.488 518.923 497.878 518.279 496.14 518.279Z" fill="black"/>
<path d="M391.788 426.803C393.462 426.803 395.136 426.094 396.359 424.936C398.869 422.425 398.869 418.305 396.359 415.859C395.136 414.636 393.526 413.992 391.788 413.992C390.05 413.992 388.441 414.7 387.217 415.859C384.707 418.369 384.707 422.489 387.217 424.936C388.441 426.159 390.05 426.803 391.788 426.803Z" fill="black"/>
<path d="M385.608 253.376C389.163 253.376 392.046 250.494 392.046 246.939C392.046 243.383 389.163 240.501 385.608 240.501C382.053 240.501 379.171 243.383 379.171 246.939C379.171 250.494 382.053 253.376 385.608 253.376Z" fill="black"/>
<path d="M459.382 327.214C462.937 327.214 465.819 324.332 465.819 320.777C465.819 317.222 462.937 314.339 459.382 314.339C455.827 314.339 452.944 317.222 452.944 320.777C452.944 324.332 455.827 327.214 459.382 327.214Z" fill="black"/>
<path d="M311.77 327.214C315.325 327.214 318.208 324.332 318.208 320.777C318.208 317.222 315.325 314.339 311.77 314.339C308.215 314.339 305.333 317.222 305.333 320.777C305.333 324.332 308.215 327.214 311.77 327.214Z" fill="black"/>
<path d="M442.323 273.139C444.833 270.629 444.833 266.509 442.323 264.063C439.812 261.552 435.692 261.552 433.246 264.063C430.735 266.573 430.735 270.693 433.246 273.139C435.756 275.586 439.876 275.65 442.323 273.139Z" fill="black"/>
<path d="M328.829 368.414C326.319 370.925 326.319 375.045 328.829 377.491C331.34 380.002 335.46 380.002 337.906 377.491C340.417 374.981 340.417 370.861 337.906 368.414C335.396 365.904 331.276 365.904 328.829 368.414Z" fill="black"/>
<path d="M333.4 275.006C335.138 275.006 336.748 274.298 337.971 273.139C340.481 270.629 340.481 266.509 337.971 264.063C336.748 262.839 335.138 262.196 333.4 262.196C331.662 262.196 330.053 262.904 328.829 264.063C326.319 266.573 326.319 270.693 328.829 273.139C330.053 274.363 331.662 275.006 333.4 275.006Z" fill="black"/>
</svg>
