<svg width="563" height="608" viewBox="0 0 563 608" fill="none" xmlns="http://www.w3.org/2000/svg">
<path d="M14 2.18322C22.5 -1.71678 32.5 -0.316784 39.6 5.78322L80 40.3832L120.4 5.78322C129.4 -1.91678 142.7 -1.91678 151.6 5.78322L192 40.3832L232.4 5.78322C241.4 -1.91678 254.7 -1.91678 263.6 5.78322L304 40.3832L344.4 5.78322C351.5 -0.316784 361.5 -1.71678 370 2.18322C378.5 6.08322 384 14.5832 384 23.9832V487.983C384 497.383 378.5 505.883 370 509.783C361.5 513.683 351.5 512.283 344.4 506.183L304 471.583L263.6 506.183C254.6 513.883 241.3 513.883 232.4 506.183L192 471.583L151.6 506.183C142.6 513.883 129.3 513.883 120.4 506.183L80 471.583L39.6 506.183C32.5 512.283 22.5 513.683 14 509.783C5.5 505.883 0 497.383 0 487.983V23.9832C0 14.5832 5.5 6.08322 14 2.18322ZM96 143.983C87.2 143.983 80 151.183 80 159.983C80 168.783 87.2 175.983 96 175.983H288C296.8 175.983 304 168.783 304 159.983C304 151.183 296.8 143.983 288 143.983H96ZM80 351.983C80 360.783 87.2 367.983 96 367.983H288C296.8 367.983 304 360.783 304 351.983C304 343.183 296.8 335.983 288 335.983H96C87.2 335.983 80 343.183 80 351.983ZM96 239.983C87.2 239.983 80 247.183 80 255.983C80 264.783 87.2 271.983 96 271.983H288C296.8 271.983 304 264.783 304 255.983C304 247.183 296.8 239.983 288 239.983H96Z" fill="white"/>
<path fill-rule="evenodd" clip-rule="evenodd" d="M344.254 228.188C291.595 228.188 248.914 270.868 248.914 323.527C248.914 359.319 268.999 392.151 300.865 408.438L352.687 448.672L419.83 381.658C432.641 364.984 439.593 344.577 439.593 323.527C439.593 270.868 396.912 228.188 344.254 228.188Z" fill="#F2D865"/>
<path fill-rule="evenodd" clip-rule="evenodd" d="M344.254 228.188C340.649 228.188 337.044 228.381 333.568 228.831C381.205 234.174 418.221 274.538 418.221 323.527C418.221 344.578 411.268 364.984 398.457 381.658L340.713 439.273L352.751 448.608L419.894 381.593C432.705 364.92 439.658 344.513 439.658 323.463C439.658 270.804 396.977 228.123 344.318 228.123L344.254 228.188Z" fill="#F2D865"/>
<path fill-rule="evenodd" clip-rule="evenodd" d="M243.958 408.438C228.508 408.438 216.083 420.862 216.083 436.312C216.083 451.762 228.508 464.186 243.958 464.186V519.999C228.508 519.999 216.083 532.488 216.083 547.938C216.083 563.388 228.508 575.813 243.958 575.813H374.639C381.076 575.813 387.063 573.624 391.763 569.954L379.402 448.093L334.984 408.373H243.958V408.438Z" fill="#F2D865"/>
<path fill-rule="evenodd" clip-rule="evenodd" d="M318.633 519.999H244.022C228.572 519.999 216.083 507.575 216.083 492.125C216.083 476.675 228.508 464.251 244.022 464.251H308.011L318.633 520.064V519.999Z" fill="#E9C03D"/>
<path d="M444.696 560.846C491.933 537.583 511.366 480.431 488.103 433.194C464.839 385.958 407.687 366.524 360.451 389.788C313.214 413.052 293.78 470.203 317.044 517.44C340.308 564.676 397.46 584.11 444.696 560.846Z" fill="#F5E680"/>
<path d="M402.578 527.596C431.447 527.596 454.85 504.192 454.85 475.323C454.85 446.454 431.447 423.051 402.578 423.051C373.708 423.051 350.305 446.454 350.305 475.323C350.305 504.192 373.708 527.596 402.578 527.596Z" fill="#EBB680"/>
<path d="M396.438 327.138C398.442 298.338 376.719 273.367 347.92 271.364C319.12 269.36 294.149 291.082 292.145 319.882C290.141 348.682 311.864 373.653 340.663 375.656C369.463 377.66 394.434 355.938 396.438 327.138Z" fill="#EBB680"/>
<path fill-rule="evenodd" clip-rule="evenodd" d="M402.578 379.984C398.264 379.984 394.016 380.306 389.767 380.885C436.889 387.387 472.038 427.686 472.038 475.323C472.038 522.961 436.825 563.259 389.638 569.697C393.951 570.276 398.264 570.598 402.578 570.598C455.236 570.598 497.917 527.918 497.917 475.259C497.917 422.6 455.236 379.919 402.578 379.919V379.984Z" fill="#F2D865"/>
<path fill-rule="evenodd" clip-rule="evenodd" d="M402.578 423.051C399.616 423.051 396.784 423.308 393.951 423.759C418.736 427.879 437.662 449.38 437.662 475.323C437.662 501.266 418.736 522.768 393.951 526.888C396.719 527.338 399.616 527.596 402.578 527.596C431.482 527.596 454.85 504.163 454.85 475.323C454.85 446.483 431.482 423.051 402.578 423.051Z" fill="#E6A361"/>
<path fill-rule="evenodd" clip-rule="evenodd" d="M344.254 271.254C341.421 271.254 338.653 271.512 335.949 271.898C360.862 275.889 379.917 297.455 379.917 323.527C379.917 349.599 360.862 371.164 335.949 375.156C338.653 375.606 341.421 375.799 344.254 375.799C373.158 375.799 396.526 352.431 396.526 323.527C396.526 294.623 373.094 271.254 344.254 271.254Z" fill="#E6A361"/>
<path d="M429.937 377.731C440.173 361.508 446.031 342.711 446.031 323.527C446.031 267.392 400.389 221.75 344.254 221.75C288.119 221.75 242.477 267.392 242.477 323.527C242.477 354.491 256.446 382.881 279.75 402H243.958C225.031 402 209.646 417.386 209.646 436.312C209.646 447.835 215.375 458.006 224.13 464.186C215.375 470.431 209.646 480.602 209.646 492.061C209.646 503.519 215.375 513.755 224.13 519.935C215.439 526.179 209.646 536.286 209.646 547.809C209.646 566.736 225.031 582.121 243.958 582.121H374.639C381.527 582.121 388.029 579.868 393.629 576.07C396.591 576.328 399.488 576.971 402.513 576.971C458.648 576.971 504.29 531.329 504.29 475.194C504.29 428.587 472.682 389.64 429.872 377.666L429.937 377.731ZM255.352 323.527C255.352 274.537 295.2 234.625 344.254 234.625C393.308 234.625 433.156 274.473 433.156 323.527C433.156 341.938 427.169 359.963 416.483 374.962C411.912 374.319 407.341 373.546 402.578 373.546C375.347 373.546 350.627 384.49 332.344 402H302.603C273.441 386.55 255.352 356.68 255.352 323.527ZM222.521 436.312C222.521 424.467 232.177 414.875 243.958 414.875H321.208C311.938 427.364 305.371 441.848 302.603 457.813H243.958C232.113 457.813 222.521 448.157 222.521 436.376V436.312ZM243.958 513.562C232.113 513.562 222.521 503.906 222.521 492.125C222.521 480.344 232.177 470.688 243.958 470.688H301.316C301.251 472.297 300.865 473.778 300.865 475.323C300.865 488.842 303.633 501.781 308.461 513.562H243.958ZM243.958 569.375C232.113 569.375 222.521 559.719 222.521 547.938C222.521 536.158 232.177 526.501 243.958 526.501H315.092C326.293 545.621 343.288 560.942 364.017 569.439H243.958V569.375ZM402.578 564.225C353.588 564.225 313.676 524.377 313.676 475.323C313.676 426.269 353.266 386.421 402.578 386.421C451.889 386.421 491.479 426.269 491.479 475.323C491.479 524.377 451.631 564.225 402.578 564.225Z" fill="black"/>
<path d="M402.578 416.613C370.197 416.613 343.867 442.943 343.867 475.323C343.867 507.704 370.197 534.033 402.578 534.033C434.958 534.033 461.288 507.704 461.288 475.323C461.288 442.943 434.958 416.613 402.578 416.613ZM402.578 521.158C377.278 521.158 356.742 500.558 356.742 475.323C356.742 450.088 377.343 429.488 402.578 429.488C427.813 429.488 448.413 450.024 448.413 475.323C448.413 500.623 427.877 521.158 402.578 521.158Z" fill="black"/>
<path d="M344.254 382.237C376.634 382.237 402.964 355.908 402.964 323.527C402.964 291.146 376.634 264.817 344.254 264.817C311.873 264.817 285.544 291.146 285.544 323.527C285.544 355.908 311.873 382.237 344.254 382.237ZM344.254 277.692C369.553 277.692 390.089 298.292 390.089 323.527C390.089 348.762 369.489 369.362 344.254 369.362C319.019 369.362 298.419 348.826 298.419 323.527C298.419 298.228 318.954 277.692 344.254 277.692Z" fill="black"/>
<path d="M344.254 329.964C346.829 329.964 348.889 332.024 348.889 334.599C348.889 337.174 346.829 339.234 344.254 339.234C343.031 339.234 341.872 338.719 340.971 337.882C338.46 335.372 334.404 335.372 331.894 337.882C329.383 340.393 329.383 344.449 331.894 346.959C333.632 348.697 335.628 349.921 337.816 350.822V352.624C337.816 356.165 340.713 359.062 344.254 359.062C347.794 359.062 350.691 356.165 350.691 352.624V350.757C357.193 348.182 361.764 341.938 361.764 334.535C361.764 324.879 353.91 317.025 344.254 317.025C341.679 317.025 339.619 314.965 339.619 312.39C339.619 309.815 341.679 307.755 344.254 307.755C345.477 307.755 346.7 308.27 347.537 309.107C350.048 311.617 354.103 311.617 356.614 309.107C359.124 306.596 359.124 302.541 356.614 300.03C354.876 298.292 352.88 297.069 350.691 296.167V294.365C350.691 290.824 347.794 287.927 344.254 287.927C340.713 287.927 337.816 290.824 337.816 294.365V296.232C331.379 298.807 326.744 305.051 326.744 312.454C326.744 322.111 334.598 329.964 344.254 329.964Z" fill="black"/>
<path d="M402.578 468.886C400.003 468.886 397.943 466.826 397.943 464.251C397.943 461.676 400.003 459.616 402.578 459.616C403.801 459.616 404.959 460.066 405.861 460.967C408.371 463.478 412.427 463.478 414.938 460.967C417.448 458.457 417.448 454.401 414.938 451.891C413.199 450.152 411.204 448.865 409.015 448.028V446.226C409.015 442.685 406.118 439.788 402.578 439.788C399.037 439.788 396.14 442.685 396.14 446.226V448.092C389.703 450.667 385.068 456.912 385.068 464.315C385.068 473.971 392.921 481.825 402.578 481.825C405.153 481.825 407.212 483.885 407.212 486.46C407.212 489.035 405.153 491.095 402.578 491.095C401.354 491.095 400.196 490.58 399.294 489.743C396.784 487.232 392.728 487.232 390.218 489.743C387.707 492.254 387.707 496.309 390.218 498.82C391.956 500.558 393.951 501.781 396.14 502.682V504.485C396.14 508.026 399.037 510.922 402.578 510.922C406.118 510.922 409.015 508.026 409.015 504.485V502.618C415.453 500.043 420.087 493.799 420.087 486.396C420.087 476.739 412.234 468.886 402.578 468.886Z" fill="black"/>
<path d="M402.578 407.922C406.133 407.922 409.015 405.04 409.015 401.485C409.015 397.93 406.133 395.047 402.578 395.047C399.022 395.047 396.14 397.93 396.14 401.485C396.14 405.04 399.022 407.922 402.578 407.922Z" fill="black"/>
<path d="M402.578 555.534C406.133 555.534 409.015 552.652 409.015 549.097C409.015 545.542 406.133 542.659 402.578 542.659C399.022 542.659 396.14 545.542 396.14 549.097C396.14 552.652 399.022 555.534 402.578 555.534Z" fill="black"/>
<path d="M476.416 481.761C479.971 481.761 482.853 478.878 482.853 475.323C482.853 471.768 479.971 468.886 476.416 468.886C472.86 468.886 469.978 471.768 469.978 475.323C469.978 478.878 472.86 481.761 476.416 481.761Z" fill="black"/>
<path d="M328.804 481.761C332.359 481.761 335.241 478.878 335.241 475.323C335.241 471.768 332.359 468.886 328.804 468.886C325.248 468.886 322.366 471.768 322.366 475.323C322.366 478.878 325.248 481.761 328.804 481.761Z" fill="black"/>
<path d="M459.356 427.686C461.867 425.175 461.867 421.055 459.356 418.609C456.846 416.098 452.726 416.098 450.279 418.609C447.769 421.119 447.769 425.239 450.279 427.686C452.79 430.132 456.91 430.196 459.356 427.686Z" fill="black"/>
<path d="M345.863 522.961C343.353 525.471 343.353 529.591 345.863 532.037C348.374 534.548 352.494 534.548 354.94 532.037C357.451 529.527 357.451 525.407 354.94 522.961C352.429 520.45 348.309 520.45 345.863 522.961Z" fill="black"/>
<path d="M454.786 521.029C453.047 521.029 451.438 521.738 450.215 522.896C447.704 525.407 447.704 529.527 450.215 531.973C451.438 533.196 453.047 533.84 454.786 533.84C456.524 533.84 458.133 533.132 459.356 531.973C461.867 529.463 461.867 525.343 459.356 522.896C458.133 521.673 456.524 521.029 454.786 521.029Z" fill="black"/>
<path d="M350.434 429.553C352.108 429.553 353.781 428.844 355.004 427.686C357.515 425.175 357.515 421.055 355.004 418.609C353.781 417.386 352.172 416.742 350.434 416.742C348.696 416.742 347.086 417.45 345.863 418.609C343.353 421.119 343.353 425.239 345.863 427.686C347.086 428.909 348.696 429.553 350.434 429.553Z" fill="black"/>
<path d="M344.254 256.126C347.809 256.126 350.691 253.244 350.691 249.689C350.691 246.133 347.809 243.251 344.254 243.251C340.698 243.251 337.816 246.133 337.816 249.689C337.816 253.244 340.698 256.126 344.254 256.126Z" fill="black"/>
<path d="M418.027 329.964C421.583 329.964 424.465 327.082 424.465 323.527C424.465 319.972 421.583 317.089 418.027 317.089C414.472 317.089 411.59 319.972 411.59 323.527C411.59 327.082 414.472 329.964 418.027 329.964Z" fill="black"/>
<path d="M270.416 329.964C273.971 329.964 276.853 327.082 276.853 323.527C276.853 319.972 273.971 317.089 270.416 317.089C266.86 317.089 263.978 319.972 263.978 323.527C263.978 327.082 266.86 329.964 270.416 329.964Z" fill="black"/>
<path d="M400.968 275.889C403.479 273.379 403.479 269.259 400.968 266.813C398.458 264.302 394.338 264.302 391.891 266.813C389.381 269.323 389.381 273.443 391.891 275.889C394.402 278.336 398.522 278.4 400.968 275.889Z" fill="black"/>
<path d="M287.475 371.164C284.964 373.675 284.964 377.795 287.475 380.241C289.986 382.752 294.106 382.752 296.552 380.241C299.063 377.731 299.063 373.611 296.552 371.164C294.041 368.654 289.921 368.654 287.475 371.164Z" fill="black"/>
<path d="M292.046 277.756C293.784 277.756 295.393 277.048 296.616 275.889C299.127 273.379 299.127 269.259 296.616 266.813C295.393 265.589 293.784 264.946 292.046 264.946C290.308 264.946 288.698 265.654 287.475 266.813C284.964 269.323 284.964 273.443 287.475 275.889C288.698 277.113 290.308 277.756 292.046 277.756Z" fill="black"/>
</svg>
